<?xml version="1.0" standalone="no"?>
<!DOCTYPE svg PUBLIC "-//W3C//DTD SVG 20010904//EN"
 "http://www.w3.org/TR/2001/REC-SVG-20010904/DTD/svg10.dtd">
<svg version="1.0" xmlns="http://www.w3.org/2000/svg"
 width="159.000000pt" height="160.000000pt" viewBox="0 0 159.000000 160.000000"
 preserveAspectRatio="xMidYMid meet">

<g transform="translate(0.000000,160.000000) scale(0.100000,-0.100000)"
fill="#000000" stroke="none">
<path d="M0 800 l0 -800 795 0 795 0 0 800 0 800 -795 0 -795 0 0 -800z m771
644 c31 -17 69 -52 104 -97 54 -68 115 -173 115 -199 0 -6 12 -25 27 -40 18
-18 22 -28 12 -28 -7 0 5 -18 29 -40 23 -22 46 -40 51 -40 10 0 22 -51 14 -63
-3 -5 -13 -7 -22 -4 -16 4 -16 0 1 -47 9 -28 17 -66 18 -83 0 -18 5 -33 11
-33 8 0 9 -12 4 -37 -4 -21 -9 -45 -10 -53 -4 -25 -18 -54 -37 -74 -10 -11
-18 -24 -18 -28 0 -5 -5 -6 -12 -2 -8 5 -9 2 -5 -10 4 -11 3 -15 -4 -11 -6 4
-13 -2 -16 -13 -3 -12 -19 -26 -36 -32 -17 -6 -41 -20 -54 -31 -16 -16 -29
-20 -47 -15 -15 4 -26 2 -26 -4 0 -5 -9 -10 -20 -10 -13 0 -17 -5 -14 -14 4
-11 12 -12 35 -4 17 6 33 8 36 4 3 -3 -2 -8 -11 -11 -9 -3 -23 -7 -33 -10 -29
-10 43 -75 82 -75 74 0 170 107 267 297 35 67 67 121 73 120 5 -1 9 7 8 18 -1
11 9 40 22 65 13 25 26 54 29 65 19 69 53 156 60 153 5 -2 14 8 20 22 9 23 11
20 14 -30 2 -30 -2 -64 -9 -76 -6 -12 -9 -34 -5 -48 4 -15 2 -26 -4 -26 -5 0
-10 -11 -10 -25 0 -14 -5 -34 -12 -44 -9 -14 -9 -26 -1 -43 8 -18 7 -30 -3
-50 -8 -15 -18 -55 -23 -90 -10 -70 -62 -184 -137 -300 -86 -133 -180 -198
-288 -198 -103 0 -133 14 -211 94 -85 87 -138 180 -140 248 -1 36 -9 59 -34
93 -18 25 -36 46 -42 46 -5 1 -13 2 -17 3 -5 0 -17 10 -28 20 -19 19 -18 19
10 12 21 -5 27 -4 24 6 -3 7 -14 14 -26 16 -18 3 -20 7 -12 23 6 10 7 19 3 19
-4 0 -1 6 8 13 11 8 14 23 11 50 -4 35 -7 38 -28 34 -13 -2 -24 0 -24 4 0 5 4
9 10 9 5 0 14 18 20 40 9 32 15 39 33 37 16 -1 22 3 21 16 -1 9 2 17 7 17 5 0
9 7 9 15 0 8 5 15 11 15 5 0 15 14 21 30 5 17 19 35 30 41 15 8 19 18 15 37
-5 24 -4 25 8 9 16 -22 21 -22 28 3 3 14 17 21 45 26 63 10 67 16 43 61 -30
60 -87 106 -120 98 -83 -20 -169 -124 -268 -325 -37 -74 -74 -140 -82 -146 -8
-6 -11 -16 -7 -22 3 -6 -5 -35 -18 -64 -23 -49 -62 -165 -85 -248 -8 -30 -9
-31 -11 -10 -1 25 -1 25 -15 -5 -14 -28 -14 -26 -10 45 3 41 6 92 6 113 1 20
6 37 11 37 6 0 8 10 4 23 -3 13 1 32 9 44 11 16 13 28 5 48 -7 19 -6 33 4 53
7 15 18 61 24 102 9 60 25 103 82 217 121 244 237 341 394 328 36 -3 76 -15
107 -31z m690 -80 c-5 -16 -10 -21 -10 -12 -1 18 10 51 15 45 2 -1 -1 -16 -5
-33z m16 -136 c-3 -8 -6 -5 -6 6 -1 11 2 17 5 13 3 -3 4 -12 1 -19z m13 -63
c0 -8 -4 -15 -10 -15 -5 0 -10 7 -10 15 0 8 5 15 10 15 6 0 10 -7 10 -15z
m-760 -11 c0 -8 -19 -13 -24 -6 -3 5 1 9 9 9 8 0 15 -2 15 -3z m750 -60 c0
-21 -4 -33 -10 -29 -17 10 -11 65 7 65 2 0 3 -16 3 -36z m-67 1 c-3 -9 -8 -14
-10 -11 -3 3 -2 9 2 15 9 16 15 13 8 -4z m-821 -35 c-30 -29 -40 -25 -12 5 13
14 26 23 28 20 3 -3 -4 -14 -16 -25z m-36 -56 c-4 -9 -9 -15 -11 -12 -3 3 -3
13 1 22 4 9 9 15 11 12 3 -3 3 -13 -1 -22z m-45 -18 c-9 -18 -19 -32 -23 -29
-10 5 19 63 31 63 5 0 1 -15 -8 -34z m-38 -56 c-3 -12 -8 -19 -11 -16 -5 6 5
36 12 36 2 0 2 -9 -1 -20z m702 -20 c3 -5 1 -10 -4 -10 -6 0 -11 5 -11 10 0 6
2 10 4 10 3 0 8 -4 11 -10z m-9 -35 c13 -13 13 -15 1 -15 -8 0 -17 7 -21 15
-3 8 -3 15 0 15 3 0 12 -7 20 -15z m4 -50 c0 -8 -2 -15 -4 -15 -2 0 -6 7 -10
15 -3 8 -1 15 4 15 6 0 10 -7 10 -15z m-708 -47 c-15 -15 -24 -6 -16 16 5 12
10 14 17 7 8 -8 8 -14 -1 -23z m84 -213 c23 -35 13 -40 -19 -11 -31 28 -33 36
-12 36 8 0 22 -11 31 -25z m-446 -127 c0 -10 -4 -18 -10 -18 -5 0 -10 15 -10
33 0 24 3 28 10 17 5 -8 10 -23 10 -32z m870 2 c-19 -12 -30 -12 -30 -1 0 10
31 20 40 14 2 -2 -2 -8 -10 -13z m-886 -62 c4 -17 2 -28 -4 -28 -5 0 -10 14
-10 32 0 36 4 35 14 -4z m16 -245 c-11 -17 -11 -17 -6 0 3 10 7 26 7 35 1 15
2 15 6 0 2 -10 -1 -25 -7 -35z"/>
<path d="M743 1085 c-26 -19 -10 -29 22 -12 21 11 24 15 12 20 -8 3 -23 0 -34
-8z"/>
<path d="M672 1059 c-24 -11 -46 -28 -49 -37 -4 -9 -11 -20 -17 -24 -6 -4 -7
-10 -3 -14 3 -4 23 6 43 22 20 16 44 33 55 39 10 5 19 15 19 22 0 7 -1 13 -2
12 -2 0 -22 -10 -46 -20z"/>
<path d="M530 819 c0 -11 5 -17 10 -14 6 3 10 13 10 21 0 8 -4 14 -10 14 -5 0
-10 -9 -10 -21z"/>
<path d="M570 670 c0 -5 5 -10 11 -10 5 0 7 5 4 10 -3 6 -8 10 -11 10 -2 0 -4
-4 -4 -10z"/>
</g>
<g transform="translate(0.000000,160.000000) scale(0.100000,-0.100000)"
fill="#ffffff" stroke="none">
<path d="M524 1456 c-105 -49 -174 -133 -273 -335 -43 -87 -61 -137 -66 -178
-3 -32 -17 -87 -30 -123 -26 -72 -42 -145 -25 -120 14 21 4 -103 -10 -130 -7
-13 -9 -46 -4 -90 10 -101 29 -92 58 25 27 109 60 192 152 391 80 172 126 247
195 316 86 87 136 90 194 10 29 -40 31 -48 17 -51 -24 -5 -43 -22 -36 -33 3
-5 -5 -6 -19 -3 -30 8 -67 -9 -67 -30 0 -8 -6 -14 -12 -12 -7 1 -12 -4 -10
-11 1 -8 -1 -11 -6 -8 -10 6 -37 -10 -37 -24 0 -5 -4 -10 -8 -10 -26 2 -80
-96 -73 -132 4 -18 1 -31 -7 -34 -14 -5 -21 -124 -7 -124 13 0 22 37 15 61 -5
15 -3 20 5 17 7 -2 13 -20 15 -41 1 -20 -2 -34 -7 -31 -8 5 -12 -9 -9 -33 1
-7 -2 -13 -7 -13 -5 0 -7 -11 -4 -25 2 -14 8 -25 13 -25 5 0 8 -3 8 -7 -4 -25
3 -52 19 -69 10 -10 21 -27 25 -36 3 -10 12 -18 19 -18 18 -1 42 -37 56 -86
26 -88 144 -239 215 -273 135 -65 272 -21 388 123 69 85 166 278 174 346 4 30
17 80 30 110 19 45 23 70 21 130 -1 48 2 82 11 95 9 15 11 41 6 88 -10 109
-33 84 -78 -88 -15 -58 -184 -400 -234 -473 -62 -92 -147 -162 -196 -162 -15
0 -75 53 -75 67 0 4 15 8 34 9 42 1 98 23 90 36 -3 5 -18 7 -32 3 -63 -16
-112 -22 -112 -14 0 5 9 9 21 9 11 0 18 4 15 8 -2 4 10 6 29 4 25 -3 36 1 44
15 5 11 29 26 52 33 29 10 48 24 58 44 9 16 25 38 35 49 34 36 63 177 36 177
-5 0 -10 18 -10 39 0 22 -5 52 -10 67 -10 24 -9 26 12 21 13 -2 31 -8 41 -12
21 -9 24 17 4 34 -10 8 -17 7 -26 -2 -10 -10 -12 -8 -11 8 7 62 -1 84 -40 124
-23 23 -45 41 -51 41 -17 0 -34 23 -52 72 -43 112 -153 247 -232 284 -69 33
-161 33 -231 0z m220 -317 c-31 -12 -39 -10 -19 5 11 8 24 12 29 8 5 -3 1 -9
-10 -13z m21 -59 c-3 -5 -11 -10 -16 -10 -6 0 -7 5 -4 10 3 6 11 10 16 10 6 0
7 -4 4 -10z m-50 -20 c-3 -5 -12 -10 -18 -10 -7 0 -26 -14 -44 -30 -39 -36
-49 -38 -28 -6 21 31 109 76 90 46z m360 -10 c3 -5 2 -10 -4 -10 -5 0 -13 5
-16 10 -3 6 -2 10 4 10 5 0 13 -4 16 -10z m25 -30 c8 -5 12 -11 10 -14 -3 -2
-14 2 -24 10 -22 15 -10 19 14 4z m-573 -61 c-9 -12 -13 -28 -10 -37 4 -10 2
-13 -5 -8 -15 9 -8 66 9 77 20 12 23 -7 6 -32z m-44 -34 c-3 -9 -8 -14 -10
-11 -3 3 -2 9 2 15 9 16 15 13 8 -4z m928 -126 l-10 -24 0 26 c-1 14 2 29 6
33 12 12 14 -9 4 -35z m-1255 -67 c-12 -11 -18 7 -10 30 l8 23 4 -23 c2 -13 1
-26 -2 -30z m351 -58 c-3 -3 -12 -4 -19 -1 -8 3 -5 6 6 6 11 1 17 -2 13 -5z
m-3 -60 c3 -8 2 -12 -4 -9 -6 3 -10 10 -10 16 0 14 7 11 14 -7z m36 -9 c0 -9
7 -18 15 -21 8 -4 15 -13 15 -22 0 -11 -6 -9 -23 9 -23 24 -31 49 -15 49 4 0
8 -7 8 -15z m-399 -158 c-10 -9 -11 -8 -5 6 3 10 9 15 12 12 3 -3 0 -11 -7
-18z"/>
<path d="M1449 1383 c-5 -15 -6 -30 -1 -35 5 -5 13 7 19 27 13 41 -2 48 -18 8z"/>
<path d="M1473 1198 c0 -38 -5 -74 -11 -81 -12 -14 -5 -57 8 -57 19 0 27 143
11 185 -5 13 -8 -4 -8 -47z"/>
<path d="M1130 894 c0 -3 7 -20 15 -40 8 -19 14 -37 14 -40 -1 -16 9 -12 14 6
3 11 0 20 -6 20 -7 0 -4 5 6 11 24 14 21 23 -13 36 -16 6 -30 9 -30 7z"/>
<path d="M1075 527 c-10 -8 -14 -17 -9 -20 6 -3 15 3 22 14 14 23 12 24 -13 6z"/>
<path d="M76 468 c-9 -37 -7 -118 4 -118 6 0 10 15 10 33 0 18 5 38 10 43 7 7
8 19 1 37 -13 33 -17 34 -25 5z"/>
<path d="M1010 470 c-13 -8 -12 -10 3 -10 9 0 17 5 17 10 0 12 -1 12 -20 0z"/>
<path d="M71 300 c0 -40 2 -42 11 -22 8 16 8 28 0 45 -9 19 -11 17 -11 -23z"/>
<path d="M92 148 c-10 -37 -6 -50 8 -28 10 15 14 60 5 60 -2 0 -8 -15 -13 -32z"/>
</g>
</svg>
